<svg width="92" height="92" viewBox="0 0 92 92" fill="none" xmlns="http://www.w3.org/2000/svg">
<circle cx="46" cy="46" r="46" fill="#959ED3"/>
<circle cx="46" cy="46" r="37" stroke="#EFF1FF" stroke-width="2"/>
<path fill-rule="evenodd" clip-rule="evenodd" d="M36.4412 51.4077C36.9973 50.6605 37.8711 50.189 38.9316 50.189V52.9246C38.736 52.9246 38.6757 52.9872 38.6357 53.041C38.5682 53.1317 38.4988 53.3182 38.5214 53.5708C38.5433 53.8153 38.645 54.0341 38.7977 54.1833C38.9328 54.3154 39.176 54.4613 39.6343 54.4613V57.1969C38.5168 57.1969 37.5703 56.8088 36.8857 56.1398C36.2187 55.488 35.8706 54.6387 35.7967 53.8151C35.7236 52.9996 35.9125 52.1181 36.4412 51.4077ZM39.6343 57.1969H60.0458C60.8012 57.1969 61.4136 56.5845 61.4136 55.8291C61.4136 55.0737 60.8012 54.4613 60.0458 54.4613H39.6343V57.1969Z" fill="#EFF1FF"/>
<path fill-rule="evenodd" clip-rule="evenodd" d="M24.1665 31.7018C24.1665 30.9464 24.7789 30.334 25.5343 30.334H33.5597C34.1957 30.334 34.7478 30.7724 34.8919 31.3919L36.2478 37.221C36.4189 37.9568 35.9612 38.692 35.2254 38.8631C34.4897 39.0343 33.7545 38.5766 33.5833 37.8408L32.4735 33.0696H25.5343C24.7789 33.0696 24.1665 32.4572 24.1665 31.7018Z" fill="#EFF1FF"/>
<path fill-rule="evenodd" clip-rule="evenodd" d="M32.5316 33.3018H63.6832L63.7576 33.31C64.2101 33.3597 64.7798 33.5797 65.22 34.0753C65.7004 34.616 65.9074 35.3485 65.8094 36.171L65.7961 36.283L61.4205 51.3231C61.345 51.6769 61.1694 52.1277 60.839 52.5269C60.4483 52.9987 59.8158 53.4162 58.9544 53.4162H39.0881L39.0109 53.4074C37.8463 53.2746 36.8514 52.1129 36.4725 50.3434C36.1534 48.8534 33.9763 39.4927 32.9234 34.9805L32.5316 33.3018ZM35.9788 36.0375C37.1025 40.8594 38.8581 48.4192 39.1475 49.7707C39.2583 50.2885 39.4111 50.5583 39.5022 50.6806H58.7584L63.0185 36.0375H35.9788Z" fill="#EFF1FF"/>
<path d="M44.5893 61.5338C44.5893 63.3334 43.1127 64.7923 41.2912 64.7923C39.4698 64.7923 37.9931 63.3334 37.9931 61.5338C37.9931 59.7342 39.4698 58.2753 41.2912 58.2753C43.1127 58.2753 44.5893 59.7342 44.5893 61.5338Z" fill="#EFF1FF"/>
<path d="M60.0539 61.5338C60.0539 63.3334 58.5773 64.7923 56.7558 64.7923C54.9344 64.7923 53.4577 63.3334 53.4577 61.5338C53.4577 59.7342 54.9344 58.2753 56.7558 58.2753C58.5773 58.2753 60.0539 59.7342 60.0539 61.5338Z" fill="#EFF1FF"/>
</svg>
